<svg width="225" height="40" viewBox="0 0 225 40" fill="none" xmlns="http://www.w3.org/2000/svg">
<path d="M26.5326 0.895874V4.35214C26.5326 3.3112 25.6945 2.46854 24.649 2.46854H3.46528V19.1596H21.4135C22.2202 19.1596 22.9276 18.5377 22.9366 17.7311C22.9366 17.7221 22.9366 17.7131 22.9366 17.6996V21.6921C22.9366 21.6876 22.9366 21.6785 22.9366 21.674C22.9276 20.8674 22.2157 20.2456 21.4135 20.2456H3.46077V37.207C3.46077 38.2479 4.29893 39.0906 5.34437 39.0906H0C1.02742 39.0906 1.85205 38.2704 1.87008 37.2475V2.73893C1.84755 1.71151 1.02291 0.895874 0 0.895874H26.5326Z" fill="#F47C87"/>
<path d="M35.6261 39.0951H30.2908C31.3317 39.0951 32.1608 38.2614 32.1744 37.2295V2.76597C32.1654 1.72954 31.3362 0.900391 30.2908 0.900391H35.6261C34.5897 0.900391 33.756 1.72954 33.7425 2.76597V37.225C33.756 38.2569 34.5897 39.0951 35.6261 39.0951Z" fill="#F47C87"/>
<path d="M69.6976 0.823792V1.05361H69.6931V2.92368C69.6931 2.32886 69.211 1.84668 68.6161 1.84668H55.485C55.2777 2.1486 55.1561 2.50911 55.147 2.90115V37.2836C55.1651 38.311 55.9942 39.1356 57.0262 39.1356H53.5789V39.1312H51.6953C52.7362 39.1312 53.5789 38.293 53.5789 37.2475V2.93721C53.5789 2.52714 53.4527 2.15762 53.2364 1.85119H40.1684C39.5691 1.85119 39.0418 2.31533 39.0373 2.91466C39.0373 2.91916 39.0373 2.92368 39.0373 2.92819L39.0283 0.828302H69.6976V0.823792Z" fill="#F47C87"/>
<path d="M122.033 27.0319C120.343 34.0211 114.007 39.2213 106.491 39.2213C97.6452 39.2213 90.4263 32.0023 90.4263 23.1521V16.8434C90.4263 7.99318 97.6452 0.7742 106.491 0.7742C113.394 0.7742 119.293 5.1768 121.519 11.3053H119.041C116.797 5.29396 113.277 1.59885 106.491 1.59885C97.7489 1.59885 92.9182 8.10133 92.9182 16.8434V23.1521C92.9182 31.8897 97.7489 38.4101 106.491 38.4101C113.868 38.4101 117.838 33.8859 119.536 27.0319H122.033Z" fill="#F47C87"/>
<path d="M144.249 7.07392L141.725 0.602997L141.811 0.778718L144.249 7.07392Z" fill="#F47C87"/>
<path d="M162.823 37.6306C162.792 37.8559 162.724 38.0722 162.638 38.275H163.017C162.927 38.0722 162.864 37.8559 162.823 37.6306Z" fill="#F47C87"/>
<path d="M175.706 18.7C175.706 20.142 176.874 21.3046 178.311 21.3046C176.869 21.3046 175.706 22.4717 175.706 23.9092C175.706 22.4762 174.539 21.3046 173.102 21.3046C174.539 21.3046 175.706 20.142 175.706 18.7Z" fill="#F47C87"/>
<path d="M195.457 36.4725C193.366 37.7117 190.978 38.311 188.527 38.311C185.769 38.311 182.943 37.545 180.397 36.0579C179.857 35.7245 179.316 35.3955 178.793 35.017C178.379 34.697 177.969 34.3365 177.586 33.9761C177.518 33.9085 177.459 33.8769 177.41 33.8273C177.221 33.6651 177.031 33.4984 176.874 33.3046C176.806 33.2731 176.761 33.2235 176.711 33.1739L166.622 22.9358L188.689 0.855347H187.152L163.612 24.4003V2.75696C163.621 1.72053 164.459 0.891377 165.495 0.891377H160.165C161.201 0.891377 162.035 1.72053 162.048 2.75696V37.2205C162.039 38.2524 161.201 39.0861 160.165 39.0861H165.495C164.459 39.0861 163.625 38.2569 163.612 37.2205V25.9415L165.518 24.0353L175.589 34.2554C175.815 34.4852 176.062 34.7151 176.315 34.9449C176.473 35.0756 176.63 35.2378 176.788 35.3639C177.09 35.6073 177.374 35.8371 177.694 36.0714C178.216 36.4499 178.757 36.7789 179.316 37.0898C181.686 38.3876 184.318 39.0365 186.963 39.0365C189.942 39.0365 192.92 38.2074 195.52 36.5311L195.457 36.4725ZM162.638 38.275C162.724 38.0722 162.792 37.8559 162.823 37.6306C162.859 37.8559 162.927 38.0722 163.012 38.275H162.638Z" fill="#F47C87"/>
<path d="M223.702 38.275H224.184V38.1173C224.027 38.1804 223.864 38.2389 223.702 38.275Z" fill="#F47C87"/>
<path d="M223.112 37.5179H201.928V20.2321H219.854C220.67 20.2321 221.395 20.8629 221.404 21.6831C221.404 21.6876 221.404 21.6966 221.404 21.7011V17.7086C221.404 17.7131 221.404 17.7221 221.404 17.7266C221.395 18.5242 220.692 19.1461 219.894 19.1461H201.933V2.47757H223.116C224.157 2.47757 225 3.31573 225 4.36117V0.904907H198.467C199.499 0.904907 200.319 1.72505 200.337 2.74345V37.2566C200.315 38.275 199.499 39.0996 198.467 39.0996H225V35.6388C225 36.6753 224.157 37.5179 223.112 37.5179ZM224.18 38.275H223.698C223.86 38.2389 224.027 38.1804 224.18 38.1173V38.275Z" fill="#F47C87"/>
<path d="M144.249 7.07391L141.73 0.602985L139.756 0.593964L124.701 39.3609L126.886 39.37L132.109 25.9505H149.913L155.194 39.406H156.843L144.249 7.07391ZM132.744 24.3147L140.973 3.17151L149.273 24.3147H132.744Z" fill="#F47C87"/>
</svg>
