<svg width="41" height="40" viewBox="0 0 41 40" fill="none" xmlns="http://www.w3.org/2000/svg">
<g clip-path="url(#clip0_3_216)">
<path fill-rule="evenodd" clip-rule="evenodd" d="M29.3602 23.97C28.8635 23.7217 26.4285 22.525 25.9752 22.3584C25.5219 22.1934 25.1919 22.1117 24.8602 22.6084C24.5302 23.1017 23.5819 24.2184 23.2935 24.5484C23.0035 24.88 22.7152 24.92 22.2202 24.6734C21.7252 24.4234 20.1285 23.9017 18.2369 22.215C16.7652 20.9017 15.7702 19.28 15.4819 18.7834C15.1935 18.2884 15.4502 18.02 15.6985 17.7734C15.9219 17.5517 16.1935 17.195 16.4419 16.9067C16.6902 16.6167 16.7719 16.41 16.9369 16.0784C17.1035 15.7484 17.0202 15.46 16.8952 15.2117C16.7719 14.9634 15.7819 12.525 15.3685 11.5334C14.9669 10.5684 14.5585 10.7 14.2552 10.6834C13.9652 10.67 13.6352 10.6667 13.3052 10.6667C12.9752 10.6667 12.4385 10.79 11.9852 11.2867C11.5302 11.7817 10.2519 12.98 10.2519 15.4184C10.2519 17.855 12.0252 20.21 12.2735 20.5417C12.5219 20.8717 15.7652 25.875 20.7335 28.02C21.9169 28.53 22.8385 28.835 23.5569 29.0617C24.7435 29.44 25.8235 29.3867 26.6769 29.2584C27.6269 29.1167 29.6069 28.06 30.0202 26.9034C30.4319 25.7467 30.4319 24.755 30.3085 24.5484C30.1852 24.3417 29.8552 24.2184 29.3585 23.97H29.3602ZM20.3235 36.3084H20.3169C17.3659 36.3089 14.4692 35.5156 11.9302 34.0117L11.3302 33.655L5.09354 35.2917L6.75854 29.2117L6.36687 28.5884C4.7171 25.9623 3.84403 22.923 3.84854 19.8217C3.85187 10.7384 11.2419 3.34837 20.3302 3.34837C24.7302 3.34837 28.8669 5.06504 31.9769 8.17837C33.5108 9.70601 34.7267 11.5226 35.554 13.5232C36.3813 15.5238 36.8038 17.6685 36.7969 19.8334C36.7935 28.9167 29.4035 36.3084 20.3235 36.3084ZM34.3435 5.81337C32.5072 3.96491 30.3223 2.49927 27.9154 1.50137C25.5084 0.503477 22.9274 -0.00682426 20.3219 3.77783e-05C9.39854 3.77783e-05 0.505205 8.8917 0.501872 19.82C0.49681 23.298 1.40916 26.7157 3.14687 29.7284L0.335205 40L10.8419 37.2434C13.7483 38.8269 17.0054 39.6566 20.3152 39.6567H20.3235C31.2469 39.6567 40.1402 30.765 40.1435 19.835C40.1516 17.2305 39.6431 14.6502 38.6476 12.2434C37.652 9.83665 36.1891 7.65116 34.3435 5.81337Z" fill="#F47C87"/>
</g>
<defs>
<clipPath id="clip0_3_216">
<rect width="40" height="40" fill="white" transform="translate(0.335205)"/>
</clipPath>
</defs>
</svg>
